<svg width="28" height="28" viewBox="0 0 28 28" fill="none" xmlns="http://www.w3.org/2000/svg">
<g clip-path="url(#clip0_65_36)">
<path d="M4.95108 21.4741C7.74897 19.8926 10.9092 19.0639 14.1231 19.0687C17.4564 19.0687 20.5857 19.9421 23.2951 21.4741M18.1231 11.0687C18.1231 12.1296 17.7017 13.147 16.9515 13.8972C16.2014 14.6473 15.1839 15.0687 14.1231 15.0687C13.0622 15.0687 12.0448 14.6473 11.2947 13.8972C10.5445 13.147 10.1231 12.1296 10.1231 11.0687C10.1231 10.0079 10.5445 8.99046 11.2947 8.24032C12.0448 7.49017 13.0622 7.06875 14.1231 7.06875C15.1839 7.06875 16.2014 7.49017 16.9515 8.24032C17.7017 8.99046 18.1231 10.0079 18.1231 11.0687ZM26.1231 13.7354C26.1231 15.3113 25.8127 16.8717 25.2096 18.3276C24.6066 19.7835 23.7227 21.1064 22.6084 22.2207C21.4941 23.335 20.1712 24.2189 18.7153 24.822C17.2594 25.425 15.6989 25.7354 14.1231 25.7354C12.5472 25.7354 10.9868 25.425 9.53088 24.822C8.07497 24.2189 6.7521 23.335 5.6378 22.2207C4.52349 21.1064 3.63958 19.7835 3.03652 18.3276C2.43347 16.8717 2.12308 15.3113 2.12308 13.7354C2.12308 10.5528 3.38736 7.50057 5.6378 5.25013C7.88823 2.99969 10.9405 1.73541 14.1231 1.73541C17.3057 1.73541 20.3579 2.99969 22.6084 5.25013C24.8588 7.50057 26.1231 10.5528 26.1231 13.7354Z" stroke="black" stroke-width="2.66667" stroke-linecap="round" stroke-linejoin="round"/>
</g>
<defs>
<clipPath id="clip0_65_36">
<rect width="28" height="28" fill="white"/>
</clipPath>
</defs>
</svg>
